<svg viewBox="0 0 512 512" xmlns="http://www.w3.org/2000/svg"><path d="M512 397.1c0 63.5-51.5 114.9-114.9 114.9H114.9C51.5 512 0 460.5 0 397.1V114.9C0 51.5 51.5 0 114.9 0h282.2C460.5 0 512 51.5 512 114.9v282.2z" fill="#34c4f3"/><path d="M208.2 321.1c-30.3-1.1-49.2-22.8-54.2-40.4 8.4 1.6 16.7 1.3 25-.8.2 0 .4-.2.8-.4-16.4-3.8-29-12.6-37.8-26.7-5.8-9.4-8.6-19.7-8.5-31 8.2 4.4 16.7 6.8 25.9 7.1-12.3-8.9-20.6-20.5-24-35.3-3.4-14.8-1.2-28.9 6.2-42.2 31.5 37.1 71.4 57.5 120.1 60.8-.3-2.3-.7-4.3-.9-6.4-1.6-13.7 1.1-26.5 8.5-38.1 9.3-14.5 22.5-23.6 39.5-26.3 19.6-3.2 36.7 2.4 51 16.2 1 .9 1.7 1.2 3.1.9 12-2.6 23.2-6.9 33.9-13 .3-.1.5-.3.8-.4h.4c-4.6 13.5-13 24-24.9 31.7 11.3-1.2 22-4.2 32.4-8.7.1.1.2.2.2.3-2.2 2.9-4.4 5.9-6.7 8.7-6.2 7.6-13.3 14.3-21.2 20.1-.7.5-1 1-1 1.8.3 8.6 0 17.3-1.1 25.9-2.3 18.1-7.3 35.3-15 51.8-8 17-18.4 32.4-31.5 45.9-22.2 22.9-48.9 37.7-80 44.6-10.7 2.3-21.5 3.5-32.4 3.9-33.6 1-64.6-7.4-93.2-25-.4-.2-.7-.5-1.4-.9 20.3 2.2 39.6-.4 58.2-8 10-4 19.2-9.3 27.8-16.1z" fill-rule="evenodd" clip-rule="evenodd" fill="#fff"/></svg>